REM DIRINDEX 1\2\6,1\2\7,1\2\8,1\3\9,1\3\10,1\3\11,1\4\12,1\4\13,1\4\14,1\5\15,1\5\16,1\5\17,1\5\18
REM DIRNAME folder01,folder02,folder03,folder04,folder05,folder06,folder07,folder08,folder09,folder10,folder11,folder12,folder13,folder14,folder15,folder16,folder17,folder18
TITLE ""
FILE "" MP3
  TRACK 01 AUDIO
    TITLE "16:cjc019_5587"
    INDEX 01 00:00:00
  TRACK 02 AUDIO
    TITLE "0:"
    INDEX 01 00:01:07
  TRACK 03 AUDIO
    TITLE "18:cjc019_5588"
    INDEX 01 00:01:71
  TRACK 04 AUDIO
    TITLE "0:"
    INDEX 01 00:04:17
  TRACK 05 AUDIO
    TITLE "17:cjc019_5589"
    INDEX 01 00:04:72
  TRACK 06 AUDIO
    TITLE "0:"
    INDEX 01 00:06:14
  TRACK 07 AUDIO
    TITLE "16:cjc019_5590"
    INDEX 01 00:07:72
  TRACK 08 AUDIO
    TITLE "0:"
    INDEX 01 00:09:24
  TRACK 09 AUDIO
    TITLE "18:cjc019_5591"
    INDEX 01 00:10:12
  TRACK 10 AUDIO
    TITLE "0:"
    INDEX 01 00:12:71
  TRACK 11 AUDIO
    TITLE "17:cjc019_5592"
    INDEX 01 00:13:45
  TRACK 12 AUDIO
    TITLE "0:"
    INDEX 01 00:14:70
  TRACK 13 AUDIO
    TITLE "16:cjc019_5593"
    INDEX 01 00:16:49
  TRACK 14 AUDIO
    TITLE "0:"
    INDEX 01 00:18:01
  TRACK 15 AUDIO
    TITLE "18:cjc019_5594"
    INDEX 01 00:18:48
  TRACK 16 AUDIO
    TITLE "0:"
    INDEX 01 00:19:48
  TRACK 17 AUDIO
    TITLE "17:cjc019_5595"
    INDEX 01 00:20:26
  TRACK 18 AUDIO
    TITLE "0:"
    INDEX 01 00:21:57
  TRACK 19 AUDIO
    TITLE "16:cjc019_5596"
    INDEX 01 00:23:46
  TRACK 20 AUDIO
    TITLE "0:"
    INDEX 01 00:24:59
  TRACK 21 AUDIO
    TITLE "18:cjc019_5597"
    INDEX 01 00:25:43
  TRACK 22 AUDIO
    TITLE "0:"
    INDEX 01 00:28:33
  TRACK 23 AUDIO
    TITLE "17:cjc019_5598"
    INDEX 01 00:29:13
  TRACK 24 AUDIO
    TITLE "0:"
    INDEX 01 00:30:30
  TRACK 25 AUDIO
    TITLE "16:cjc019_5599"
    INDEX 01 00:32:09
  TRACK 26 AUDIO
    TITLE "0:"
    INDEX 01 00:33:24
  TRACK 27 AUDIO
    TITLE "18:cjc019_5600"
    INDEX 01 00:34:06
  TRACK 28 AUDIO
    TITLE "0:"
    INDEX 01 00:36:19
  TRACK 29 AUDIO
    TITLE "17:cjc019_5601"
    INDEX 01 00:36:74
  TRACK 30 AUDIO
    TITLE "0:"
    INDEX 01 00:38:18
  TRACK 31 AUDIO
    TITLE "16:cjc019_5602"
    INDEX 01 00:40:01
  TRACK 32 AUDIO
    TITLE "0:"
    INDEX 01 00:41:51
  TRACK 33 AUDIO
    TITLE "18:cjc019_5603"
    INDEX 01 00:42:27
  TRACK 34 AUDIO
    TITLE "0:"
    INDEX 01 00:44:18
  TRACK 35 AUDIO
    TITLE "17:cjc019_5604"
    INDEX 01 00:44:71
  TRACK 36 AUDIO
    TITLE "0:"
    INDEX 01 00:46:41
  TRACK 37 AUDIO
    TITLE "16:cjc019_5605"
    INDEX 01 00:48:26
  TRACK 38 AUDIO
    TITLE "0:"
    INDEX 01 00:49:47
  TRACK 39 AUDIO
    TITLE "18:cjc019_5606"
    INDEX 01 00:50:27
  TRACK 40 AUDIO
    TITLE "0:"
    INDEX 01 00:53:02
  TRACK 41 AUDIO
    TITLE "17:cjc019_5607"
    INDEX 01 00:53:55
  TRACK 42 AUDIO
    TITLE "0:"
    INDEX 01 00:55:03
  TRACK 43 AUDIO
    TITLE "16:cjc019_5608"
    INDEX 01 00:56:57
  TRACK 44 AUDIO
    TITLE "0:"
    INDEX 01 00:58:05
  TRACK 45 AUDIO
    TITLE "18:cjc019_5609"
    INDEX 01 00:58:62
  TRACK 46 AUDIO
    TITLE "0:"
    INDEX 01 01:01:11
  TRACK 47 AUDIO
    TITLE "17:cjc019_5610"
    INDEX 01 01:01:62
  TRACK 48 AUDIO
    TITLE "0:"
    INDEX 01 01:03:08
  TRACK 49 AUDIO
    TITLE "16:cjc019_5611"
    INDEX 01 01:04:72
  TRACK 50 AUDIO
    TITLE "0:"
    INDEX 01 01:06:06
  TRACK 51 AUDIO
    TITLE "18:cjc019_5612"
    INDEX 01 01:06:65
  TRACK 52 AUDIO
    TITLE "0:"
    INDEX 01 01:11:33
  TRACK 53 AUDIO
    TITLE "17:cjc019_5613"
    INDEX 01 01:12:13
  TRACK 54 AUDIO
    TITLE "0:"
    INDEX 01 01:13:20
  TRACK 55 AUDIO
    TITLE "16:cjc019_5614"
    INDEX 01 01:15:07
  TRACK 56 AUDIO
    TITLE "0:"
    INDEX 01 01:16:16
  TRACK 57 AUDIO
    TITLE "18:cjc019_5615"
    INDEX 01 01:16:73
  TRACK 58 AUDIO
    TITLE "0:"
    INDEX 01 01:21:23
  TRACK 59 AUDIO
    TITLE "17:cjc019_5616"
    INDEX 01 01:22:05
  TRACK 60 AUDIO
    TITLE "0:"
    INDEX 01 01:23:20
  TRACK 61 AUDIO
    TITLE "16:cjc019_5617"
    INDEX 01 01:25:11
  TRACK 62 AUDIO
    TITLE "0:"
    INDEX 01 01:26:30
  TRACK 63 AUDIO
    TITLE "18:cjc019_5618"
    INDEX 01 01:27:06
  TRACK 64 AUDIO
    TITLE "0:"
    INDEX 01 01:31:00
  TRACK 65 AUDIO
    TITLE "17:cjc019_5619"
    INDEX 01 01:31:55
  TRACK 66 AUDIO
    TITLE "0:"
    INDEX 01 01:32:74
  TRACK 67 AUDIO
    TITLE "16:cjc019_5620"
    INDEX 01 01:34:55
  TRACK 68 AUDIO
    TITLE "0:"
    INDEX 01 01:35:73
  TRACK 69 AUDIO
    TITLE "18:cjc019_5621"
    INDEX 01 01:36:62
  TRACK 70 AUDIO
    TITLE "0:"
    INDEX 01 01:41:32
  TRACK 71 AUDIO
    TITLE "17:cjc019_5622"
    INDEX 01 01:42:16
  TRACK 72 AUDIO
    TITLE "0:"
    INDEX 01 01:43:35
  TRACK 73 AUDIO
    TITLE "16:cjc019_5623"
    INDEX 01 01:45:16
  TRACK 74 AUDIO
    TITLE "0:"
    INDEX 01 01:46:43
  TRACK 75 AUDIO
    TITLE "18:cjc019_5624"
    INDEX 01 01:47:25
  TRACK 76 AUDIO
    TITLE "0:"
    INDEX 01 01:51:52
  TRACK 77 AUDIO
    TITLE "17:cjc019_5625"
    INDEX 01 01:52:28
  TRACK 78 AUDIO
    TITLE "0:"
    INDEX 01 01:53:53
  TRACK 79 AUDIO
    TITLE "16:cjc019_5626"
    INDEX 01 01:55:40
  TRACK 80 AUDIO
    TITLE "0:"
    INDEX 01 01:56:65
  TRACK 81 AUDIO
    TITLE "18:cjc019_5627"
    INDEX 01 01:57:47
  TRACK 82 AUDIO
    TITLE "0:"
    INDEX 01 02:02:54
  TRACK 83 AUDIO
    TITLE "17:cjc019_5628"
    INDEX 01 02:03:36
  TRACK 84 AUDIO
    TITLE "0:"
    INDEX 01 02:04:60
  TRACK 85 AUDIO
    TITLE "16:cjc019_5629"
    INDEX 01 02:06:46
  TRACK 86 AUDIO
    TITLE "0:"
    INDEX 01 02:08:01
  TRACK 87 AUDIO
    TITLE "18:cjc019_5630"
    INDEX 01 02:08:58
  TRACK 88 AUDIO
    TITLE "0:"
    INDEX 01 02:12:44
  TRACK 89 AUDIO
    TITLE "17:cjc019_5631"
    INDEX 01 02:13:24
  TRACK 90 AUDIO
    TITLE "0:"
    INDEX 01 02:14:57
  TRACK 91 AUDIO
    TITLE "16:cjc019_5632"
    INDEX 01 02:16:38
  TRACK 92 AUDIO
    TITLE "0:"
    INDEX 01 02:17:63
  TRACK 93 AUDIO
    TITLE "18:cjc019_5633"
    INDEX 01 02:18:49
  TRACK 94 AUDIO
    TITLE "0:"
    INDEX 01 02:23:28
  TRACK 95 AUDIO
    TITLE "17:cjc019_5634"
    INDEX 01 02:24:08
  TRACK 96 AUDIO
    TITLE "0:"
    INDEX 01 02:25:35
  TRACK 97 AUDIO
    TITLE "16:cjc019_5635"
    INDEX 01 02:27:18
  TRACK 98 AUDIO
    TITLE "0:"
    INDEX 01 02:28:55
  TRACK 99 AUDIO
    TITLE "18:cjc019_5636"
    INDEX 01 02:29:35
  TRACK 100 AUDIO
    TITLE "0:"
    INDEX 01 02:30:66
  TRACK 101 AUDIO
    TITLE "17:cjc019_5637"
    INDEX 01 02:31:46
  TRACK 102 AUDIO
    TITLE "0:"
    INDEX 01 02:33:11
  TRACK 103 AUDIO
    TITLE "16:cjc019_5638"
    INDEX 01 02:34:69
  TRACK 104 AUDIO
    TITLE "0:"
    INDEX 01 02:36:13
  TRACK 105 AUDIO
    TITLE "18:cjc019_5639"
    INDEX 01 02:36:72
  TRACK 106 AUDIO
    TITLE "0:"
    INDEX 01 02:39:06
  TRACK 107 AUDIO
    TITLE "17:cjc019_5640"
    INDEX 01 02:39:55
  TRACK 108 AUDIO
    TITLE "0:"
    INDEX 01 02:41:01
